<svg width="619" height="144" viewBox="0 0 619 144" fill="none" xmlns="http://www.w3.org/2000/svg">
<rect width="619" height="144" fill="#D9E2EC"/>
<path d="M140.75 68.688V61.136H151.054C153.358 61.136 155.236 60.6667 156.686 59.728C158.137 58.7467 159.182 57.4667 159.822 55.888C160.505 54.3093 160.846 52.56 160.846 50.64C160.846 48.1227 160.142 46.3307 158.734 45.264C157.369 44.1973 155.556 43.664 153.294 43.664H140.75V35.92H153.358C158.649 35.92 162.745 37.1787 165.646 39.696C168.548 42.1707 169.998 45.7547 169.998 50.448C169.998 52.8373 169.614 55.1413 168.846 57.36C168.078 59.536 166.926 61.4773 165.39 63.184C163.854 64.8907 161.913 66.2347 159.566 67.216C157.22 68.1973 154.446 68.688 151.246 68.688H140.75ZM135.758 82V35.92H144.846V82H135.758ZM177.685 35.92H186.837V64.016C186.837 67.7707 187.563 70.5227 189.013 72.272C190.464 74.0213 192.811 74.896 196.053 74.896C199.253 74.896 201.6 74.0213 203.093 72.272C204.587 70.5227 205.333 67.7707 205.333 64.016V35.92H214.485V63.696C214.485 69.968 212.949 74.7253 209.877 77.968C206.805 81.168 202.197 82.768 196.053 82.768C189.739 82.768 185.088 81.168 182.101 77.968C179.157 74.7253 177.685 69.968 177.685 63.696V35.92ZM222.578 59.088C222.578 54.3093 223.559 50.128 225.522 46.544C227.485 42.96 230.343 40.1653 234.098 38.16C237.853 36.1547 242.439 35.152 247.858 35.152C250.205 35.152 252.295 35.3227 254.13 35.664C255.965 36.0053 257.437 36.4533 258.546 37.008V45.072H257.97C256.903 44.5173 255.495 44.048 253.746 43.664C252.039 43.2373 250.162 43.024 248.114 43.024C242.909 43.024 238.898 44.368 236.082 47.056C233.309 49.744 231.922 53.776 231.922 59.152C231.922 62.6933 232.519 65.6587 233.714 68.048C234.909 70.3947 236.615 72.1653 238.834 73.36C241.053 74.5547 243.677 75.152 246.706 75.152C247.943 75.152 249.074 75.024 250.098 74.768C251.122 74.512 252.061 74.128 252.914 73.616L251.122 78.224V58.576H259.698V80.208C258.119 80.976 256.199 81.5947 253.938 82.064C251.677 82.5333 249.223 82.768 246.578 82.768C241.245 82.768 236.786 81.7867 233.202 79.824C229.661 77.8187 226.994 75.0453 225.202 71.504C223.453 67.9627 222.578 63.824 222.578 59.088ZM283.907 72.016H284.547C285.571 72.5707 286.787 73.0827 288.195 73.552C289.603 74.0213 291.139 74.4053 292.803 74.704C294.51 74.96 296.259 75.088 298.051 75.088C300.014 75.088 301.699 74.9387 303.107 74.64C304.515 74.2987 305.603 73.7653 306.371 73.04C307.139 72.272 307.523 71.248 307.523 69.968C307.523 68.3893 307.032 67.2373 306.051 66.512C305.07 65.7867 303.47 65.232 301.251 64.848L296.387 64.016C293.656 63.5893 291.288 62.8427 289.283 61.776C287.278 60.6667 285.72 59.1947 284.611 57.36C283.544 55.4827 283.011 53.2 283.011 50.512C283.011 47.184 283.779 44.3893 285.315 42.128C286.894 39.824 289.219 38.096 292.291 36.944C295.363 35.7493 299.139 35.152 303.619 35.152C305.667 35.152 307.651 35.344 309.571 35.728C311.534 36.0693 313.134 36.5173 314.371 37.072V45.072H313.795C312.6 44.5173 311.086 44.0053 309.251 43.536C307.459 43.0667 305.39 42.832 303.043 42.832C300.824 42.832 298.862 43.088 297.155 43.6C295.491 44.0693 294.19 44.8373 293.251 45.904C292.355 46.9707 291.907 48.3573 291.907 50.064C291.907 52.1973 292.526 53.6907 293.763 54.544C295 55.3973 296.856 56.0587 299.331 56.528L304.067 57.296C306.414 57.68 308.526 58.3627 310.403 59.344C312.28 60.2827 313.752 61.6053 314.819 63.312C315.928 64.976 316.483 67.1093 316.483 69.712C316.483 72.016 316.014 74 315.075 75.664C314.179 77.328 312.899 78.6933 311.235 79.76C309.571 80.784 307.608 81.5307 305.347 82C303.128 82.512 300.696 82.768 298.051 82.768C296.174 82.768 294.36 82.64 292.611 82.384C290.904 82.1707 289.283 81.8933 287.747 81.552C286.254 81.168 284.974 80.7627 283.907 80.336V72.016ZM329.625 68.688V61.136H339.929C342.233 61.136 344.111 60.6667 345.561 59.728C347.012 58.7467 348.057 57.4667 348.697 55.888C349.38 54.3093 349.721 52.56 349.721 50.64C349.721 48.1227 349.017 46.3307 347.609 45.264C346.244 44.1973 344.431 43.664 342.169 43.664H329.625V35.92H342.233C347.524 35.92 351.62 37.1787 354.521 39.696C357.423 42.1707 358.873 45.7547 358.873 50.448C358.873 52.8373 358.489 55.1413 357.721 57.36C356.953 59.536 355.801 61.4773 354.265 63.184C352.729 64.8907 350.788 66.2347 348.441 67.216C346.095 68.1973 343.321 68.688 340.121 68.688H329.625ZM324.633 82V35.92H333.721V82H324.633ZM365.015 58.96C365.015 54.2667 365.911 50.128 367.703 46.544C369.495 42.96 372.077 40.1653 375.447 38.16C378.818 36.1547 382.893 35.152 387.671 35.152C392.407 35.152 396.461 36.1547 399.831 38.16C403.202 40.1653 405.783 42.96 407.575 46.544C409.367 50.128 410.263 54.2667 410.263 58.96C410.263 63.6533 409.367 67.792 407.575 71.376C405.783 74.96 403.202 77.7547 399.831 79.76C396.461 81.7653 392.407 82.768 387.671 82.768C382.893 82.768 378.818 81.7653 375.447 79.76C372.077 77.7547 369.495 74.9813 367.703 71.44C365.911 67.856 365.015 63.696 365.015 58.96ZM374.359 58.96C374.359 62.2453 374.871 65.0827 375.895 67.472C376.962 69.8613 378.477 71.696 380.439 72.976C382.402 74.256 384.813 74.896 387.671 74.896C390.487 74.896 392.877 74.256 394.839 72.976C396.802 71.696 398.295 69.8613 399.319 67.472C400.386 65.0827 400.919 62.2453 400.919 58.96C400.919 55.6747 400.386 52.8373 399.319 50.448C398.295 48.0587 396.802 46.224 394.839 44.944C392.877 43.664 390.487 43.024 387.671 43.024C384.813 43.024 382.402 43.664 380.439 44.944C378.477 46.224 376.962 48.0587 375.895 50.448C374.871 52.8373 374.359 55.6747 374.359 58.96ZM423.75 69.84V62.16H434.694C436.913 62.16 438.748 61.648 440.198 60.624C441.692 59.6 442.78 58.2773 443.462 56.656C444.145 54.992 444.486 53.2427 444.486 51.408C444.486 48.72 443.74 46.7573 442.246 45.52C440.796 44.2827 438.876 43.664 436.486 43.664H423.75V35.92H436.614C440.326 35.92 443.441 36.5387 445.958 37.776C448.518 38.9707 450.46 40.72 451.782 43.024C453.105 45.2853 453.766 47.9947 453.766 51.152C453.766 54.096 453.233 56.7413 452.166 59.088C451.142 61.392 449.734 63.3333 447.942 64.912C446.15 66.4907 444.124 67.7067 441.862 68.56C439.601 69.4133 437.212 69.84 434.694 69.84H423.75ZM418.758 82V35.92H427.846V82H418.758ZM445.51 82L435.142 67.728L443.91 66.32L455.75 81.552V82H445.51ZM457.841 35.92H495.025V43.856H481.009V82H471.857V43.856H457.841V35.92ZM500.094 72.016H500.734C501.758 72.5707 502.974 73.0827 504.382 73.552C505.79 74.0213 507.326 74.4053 508.99 74.704C510.697 74.96 512.446 75.088 514.238 75.088C516.201 75.088 517.886 74.9387 519.294 74.64C520.702 74.2987 521.79 73.7653 522.558 73.04C523.326 72.272 523.71 71.248 523.71 69.968C523.71 68.3893 523.22 67.2373 522.238 66.512C521.257 65.7867 519.657 65.232 517.438 64.848L512.574 64.016C509.844 63.5893 507.476 62.8427 505.47 61.776C503.465 60.6667 501.908 59.1947 500.798 57.36C499.732 55.4827 499.198 53.2 499.198 50.512C499.198 47.184 499.966 44.3893 501.502 42.128C503.081 39.824 505.406 38.096 508.478 36.944C511.55 35.7493 515.326 35.152 519.806 35.152C521.854 35.152 523.838 35.344 525.758 35.728C527.721 36.0693 529.321 36.5173 530.558 37.072V45.072H529.982C528.788 44.5173 527.273 44.0053 525.438 43.536C523.646 43.0667 521.577 42.832 519.23 42.832C517.012 42.832 515.049 43.088 513.342 43.6C511.678 44.0693 510.377 44.8373 509.438 45.904C508.542 46.9707 508.094 48.3573 508.094 50.064C508.094 52.1973 508.713 53.6907 509.95 54.544C511.188 55.3973 513.044 56.0587 515.518 56.528L520.254 57.296C522.601 57.68 524.713 58.3627 526.59 59.344C528.468 60.2827 529.94 61.6053 531.006 63.312C532.116 64.976 532.67 67.1093 532.67 69.712C532.67 72.016 532.201 74 531.262 75.664C530.366 77.328 529.086 78.6933 527.422 79.76C525.758 80.784 523.796 81.5307 521.534 82C519.316 82.512 516.884 82.768 514.238 82.768C512.361 82.768 510.548 82.64 508.798 82.384C507.092 82.1707 505.47 81.8933 503.934 81.552C502.441 81.168 501.161 80.7627 500.094 80.336V72.016Z" fill="#4E4E4E"/>
<path d="M137.252 108.256V106.132H140.15C140.798 106.132 141.326 106 141.734 105.736C142.142 105.46 142.436 105.1 142.616 104.656C142.808 104.212 142.904 103.72 142.904 103.18C142.904 102.472 142.706 101.968 142.31 101.668C141.926 101.368 141.416 101.218 140.78 101.218H137.252V99.04H140.798C142.286 99.04 143.438 99.394 144.254 100.102C145.07 100.798 145.478 101.806 145.478 103.126C145.478 103.798 145.37 104.446 145.154 105.07C144.938 105.682 144.614 106.228 144.182 106.708C143.75 107.188 143.204 107.566 142.544 107.842C141.884 108.118 141.104 108.256 140.204 108.256H137.252ZM135.848 112V99.04H138.404V112H135.848ZM148.938 100.624C148.53 100.624 148.188 100.504 147.912 100.264C147.648 100.012 147.516 99.664 147.516 99.22C147.516 98.788 147.648 98.452 147.912 98.212C148.188 97.96 148.53 97.834 148.938 97.834C149.358 97.834 149.7 97.96 149.964 98.212C150.228 98.452 150.36 98.788 150.36 99.22C150.36 99.664 150.228 100.012 149.964 100.264C149.7 100.504 149.358 100.624 148.938 100.624ZM147.678 112V105.214C147.678 104.974 147.672 104.668 147.66 104.296C147.648 103.924 147.63 103.558 147.606 103.198C147.594 102.826 147.558 102.532 147.498 102.316L147.552 102.172H150.198V112H147.678ZM152.514 107.05C152.514 105.91 152.748 104.962 153.216 104.206C153.684 103.45 154.332 102.886 155.16 102.514C155.988 102.13 156.948 101.938 158.04 101.938C158.904 101.938 159.636 102.052 160.236 102.28V104.35H160.056C159.84 104.242 159.576 104.152 159.264 104.08C158.964 104.008 158.622 103.972 158.238 103.972C157.254 103.972 156.48 104.236 155.916 104.764C155.364 105.28 155.088 106.042 155.088 107.05C155.088 108.058 155.364 108.826 155.916 109.354C156.48 109.87 157.254 110.128 158.238 110.128C158.622 110.128 158.964 110.092 159.264 110.02C159.576 109.948 159.84 109.858 160.056 109.75H160.236V111.82C159.636 112.06 158.904 112.18 158.04 112.18C156.912 112.18 155.934 111.994 155.106 111.622C154.29 111.238 153.654 110.668 153.198 109.912C152.742 109.144 152.514 108.19 152.514 107.05ZM164.999 112H162.479V101.362C162.479 101.122 162.473 100.816 162.461 100.444C162.449 100.06 162.431 99.688 162.407 99.328C162.395 98.968 162.359 98.68 162.299 98.464L162.353 98.32H164.999V112ZM164.585 106.852L168.725 102.172H171.425V102.388C171.305 102.484 171.161 102.622 170.993 102.802C170.837 102.97 170.669 103.15 170.489 103.342C170.309 103.534 170.135 103.72 169.967 103.9L166.583 107.518L166.601 105.934L170.093 110.218C170.321 110.494 170.573 110.788 170.849 111.1C171.137 111.412 171.365 111.64 171.533 111.784V112H168.635L164.585 106.852ZM177.634 112.216C176.998 112.216 176.392 112.15 175.816 112.018C175.252 111.898 174.748 111.676 174.304 111.352C173.86 111.016 173.506 110.566 173.242 110.002C172.99 109.426 172.864 108.7 172.864 107.824V105.214C172.864 104.974 172.858 104.668 172.846 104.296C172.846 103.924 172.834 103.558 172.81 103.198C172.786 102.826 172.744 102.532 172.684 102.316L172.738 102.172H175.384V107.716C175.384 108.364 175.48 108.868 175.672 109.228C175.876 109.588 176.164 109.834 176.536 109.966C176.908 110.098 177.346 110.164 177.85 110.164C178.21 110.164 178.558 110.128 178.894 110.056C179.242 109.984 179.554 109.912 179.83 109.84L179.434 110.416C179.374 110.236 179.326 110.014 179.29 109.75C179.266 109.474 179.254 109.156 179.254 108.796V105.214C179.254 104.974 179.248 104.668 179.236 104.296C179.236 103.924 179.224 103.558 179.2 103.198C179.176 102.826 179.14 102.532 179.092 102.316L179.128 102.172H181.774V108.328C181.774 108.568 181.78 108.88 181.792 109.264C181.804 109.636 181.822 110.008 181.846 110.38C181.87 110.74 181.906 111.028 181.954 111.244L181.9 111.388C181.54 111.544 181.114 111.682 180.622 111.802C180.13 111.922 179.62 112.018 179.092 112.09C178.564 112.174 178.078 112.216 177.634 112.216ZM184.839 116.176V105.79C184.839 105.562 184.833 105.268 184.821 104.908C184.809 104.536 184.791 104.17 184.767 103.81C184.755 103.45 184.719 103.162 184.659 102.946L184.713 102.802C185.337 102.538 185.997 102.328 186.693 102.172C187.389 102.016 188.097 101.938 188.817 101.938C189.549 101.938 190.227 102.04 190.851 102.244C191.487 102.436 192.045 102.742 192.525 103.162C193.005 103.582 193.377 104.116 193.641 104.764C193.917 105.4 194.055 106.162 194.055 107.05C194.055 107.782 193.947 108.466 193.731 109.102C193.515 109.726 193.191 110.272 192.759 110.74C192.327 111.208 191.781 111.574 191.121 111.838C190.473 112.09 189.711 112.216 188.835 112.216C188.583 112.216 188.331 112.198 188.079 112.162C187.827 112.138 187.599 112.102 187.395 112.054C187.203 112.018 187.071 111.994 186.999 111.982L187.359 111.01V116.176H184.839ZM187.359 111.154L187.269 110.218C187.257 110.158 187.299 110.14 187.395 110.164C187.491 110.176 187.635 110.2 187.827 110.236C188.031 110.272 188.283 110.29 188.583 110.29C189.591 110.29 190.323 110.002 190.779 109.426C191.247 108.85 191.481 108.058 191.481 107.05C191.481 106.054 191.247 105.28 190.779 104.728C190.311 104.176 189.609 103.9 188.673 103.9C188.301 103.9 187.947 103.948 187.611 104.044C187.275 104.128 187.035 104.224 186.891 104.332L187.125 103.684C187.221 103.864 187.281 104.092 187.305 104.368C187.341 104.632 187.359 104.944 187.359 105.304V111.154ZM200.169 105.556C200.169 104.212 200.445 103.036 200.997 102.028C201.549 101.02 202.353 100.234 203.409 99.67C204.465 99.106 205.755 98.824 207.279 98.824C207.939 98.824 208.527 98.872 209.043 98.968C209.559 99.064 209.973 99.19 210.285 99.346V101.614H210.123C209.823 101.458 209.427 101.326 208.935 101.218C208.455 101.098 207.927 101.038 207.351 101.038C205.887 101.038 204.759 101.416 203.967 102.172C203.187 102.928 202.797 104.062 202.797 105.574C202.797 106.57 202.965 107.404 203.301 108.076C203.637 108.736 204.117 109.234 204.741 109.57C205.365 109.906 206.103 110.074 206.955 110.074C207.303 110.074 207.621 110.038 207.909 109.966C208.197 109.894 208.461 109.786 208.701 109.642L208.197 110.938V105.412H210.609V111.496C210.165 111.712 209.625 111.886 208.989 112.018C208.353 112.15 207.663 112.216 206.919 112.216C205.419 112.216 204.165 111.94 203.157 111.388C202.161 110.824 201.411 110.044 200.907 109.048C200.415 108.052 200.169 106.888 200.169 105.556ZM213.702 112V105.718C213.702 105.478 213.696 105.172 213.684 104.8C213.672 104.416 213.654 104.044 213.63 103.684C213.618 103.312 213.582 103.018 213.522 102.802L213.576 102.658C213.912 102.538 214.302 102.43 214.746 102.334C215.202 102.238 215.676 102.166 216.168 102.118C216.672 102.058 217.176 102.028 217.68 102.028C217.896 102.028 218.13 102.034 218.382 102.046C218.634 102.058 218.886 102.082 219.138 102.118V104.17H218.976C218.796 104.122 218.592 104.092 218.364 104.08C218.136 104.056 217.914 104.044 217.698 104.044C217.314 104.044 216.936 104.074 216.564 104.134C216.192 104.194 215.874 104.266 215.61 104.35L215.988 103.774C216.144 104.098 216.222 104.656 216.222 105.448V112H213.702ZM220.278 107.05C220.278 105.934 220.482 104.998 220.89 104.242C221.298 103.474 221.868 102.898 222.6 102.514C223.332 102.13 224.172 101.938 225.12 101.938C226.056 101.938 226.89 102.13 227.622 102.514C228.354 102.898 228.924 103.474 229.332 104.242C229.74 104.998 229.944 105.934 229.944 107.05C229.944 108.178 229.74 109.12 229.332 109.876C228.924 110.632 228.354 111.208 227.622 111.604C226.89 111.988 226.056 112.18 225.12 112.18C224.16 112.18 223.314 111.988 222.582 111.604C221.862 111.208 221.298 110.632 220.89 109.876C220.482 109.12 220.278 108.178 220.278 107.05ZM222.852 107.05C222.852 108.106 223.044 108.904 223.428 109.444C223.812 109.972 224.376 110.236 225.12 110.236C225.852 110.236 226.41 109.972 226.794 109.444C227.178 108.904 227.37 108.106 227.37 107.05C227.37 105.994 227.178 105.202 226.794 104.674C226.41 104.134 225.852 103.864 225.12 103.864C224.376 103.864 223.812 104.134 223.428 104.674C223.044 105.202 222.852 105.994 222.852 107.05ZM236.925 112.216C236.289 112.216 235.683 112.15 235.107 112.018C234.543 111.898 234.039 111.676 233.595 111.352C233.151 111.016 232.797 110.566 232.533 110.002C232.281 109.426 232.155 108.7 232.155 107.824V105.214C232.155 104.974 232.149 104.668 232.137 104.296C232.137 103.924 232.125 103.558 232.101 103.198C232.077 102.826 232.035 102.532 231.975 102.316L232.029 102.172H234.675V107.716C234.675 108.364 234.771 108.868 234.963 109.228C235.167 109.588 235.455 109.834 235.827 109.966C236.199 110.098 236.637 110.164 237.141 110.164C237.501 110.164 237.849 110.128 238.185 110.056C238.533 109.984 238.845 109.912 239.121 109.84L238.725 110.416C238.665 110.236 238.617 110.014 238.581 109.75C238.557 109.474 238.545 109.156 238.545 108.796V105.214C238.545 104.974 238.539 104.668 238.527 104.296C238.527 103.924 238.515 103.558 238.491 103.198C238.467 102.826 238.431 102.532 238.383 102.316L238.419 102.172H241.065V108.328C241.065 108.568 241.071 108.88 241.083 109.264C241.095 109.636 241.113 110.008 241.137 110.38C241.161 110.74 241.197 111.028 241.245 111.244L241.191 111.388C240.831 111.544 240.405 111.682 239.913 111.802C239.421 111.922 238.911 112.018 238.383 112.09C237.855 112.174 237.369 112.216 236.925 112.216ZM244.13 116.176V105.79C244.13 105.562 244.124 105.268 244.112 104.908C244.1 104.536 244.082 104.17 244.058 103.81C244.046 103.45 244.01 103.162 243.95 102.946L244.004 102.802C244.628 102.538 245.288 102.328 245.984 102.172C246.68 102.016 247.388 101.938 248.108 101.938C248.84 101.938 249.518 102.04 250.142 102.244C250.778 102.436 251.336 102.742 251.816 103.162C252.296 103.582 252.668 104.116 252.932 104.764C253.208 105.4 253.346 106.162 253.346 107.05C253.346 107.782 253.238 108.466 253.022 109.102C252.806 109.726 252.482 110.272 252.05 110.74C251.618 111.208 251.072 111.574 250.412 111.838C249.764 112.09 249.002 112.216 248.126 112.216C247.874 112.216 247.622 112.198 247.37 112.162C247.118 112.138 246.89 112.102 246.686 112.054C246.494 112.018 246.362 111.994 246.29 111.982L246.65 111.01V116.176H244.13ZM246.65 111.154L246.56 110.218C246.548 110.158 246.59 110.14 246.686 110.164C246.782 110.176 246.926 110.2 247.118 110.236C247.322 110.272 247.574 110.29 247.874 110.29C248.882 110.29 249.614 110.002 250.07 109.426C250.538 108.85 250.772 108.058 250.772 107.05C250.772 106.054 250.538 105.28 250.07 104.728C249.602 104.176 248.9 103.9 247.964 103.9C247.592 103.9 247.238 103.948 246.902 104.044C246.566 104.128 246.326 104.224 246.182 104.332L246.416 103.684C246.512 103.864 246.572 104.092 246.596 104.368C246.632 104.632 246.65 104.944 246.65 105.304V111.154ZM259.658 109.192H259.838C260.126 109.348 260.468 109.492 260.864 109.624C261.26 109.756 261.692 109.864 262.16 109.948C262.64 110.02 263.132 110.056 263.636 110.056C264.188 110.056 264.662 110.014 265.058 109.93C265.454 109.834 265.76 109.684 265.976 109.48C266.192 109.264 266.3 108.976 266.3 108.616C266.3 108.172 266.162 107.848 265.886 107.644C265.61 107.44 265.16 107.284 264.536 107.176L263.168 106.942C262.4 106.822 261.734 106.612 261.17 106.312C260.606 106 260.168 105.586 259.856 105.07C259.556 104.542 259.406 103.9 259.406 103.144C259.406 102.208 259.622 101.422 260.054 100.786C260.498 100.138 261.152 99.652 262.016 99.328C262.88 98.992 263.942 98.824 265.202 98.824C265.778 98.824 266.336 98.878 266.876 98.986C267.428 99.082 267.878 99.208 268.226 99.364V101.614H268.064C267.728 101.458 267.302 101.314 266.786 101.182C266.282 101.05 265.7 100.984 265.04 100.984C264.416 100.984 263.864 101.056 263.384 101.2C262.916 101.332 262.55 101.548 262.286 101.848C262.034 102.148 261.908 102.538 261.908 103.018C261.908 103.618 262.082 104.038 262.43 104.278C262.778 104.518 263.3 104.704 263.996 104.836L265.328 105.052C265.988 105.16 266.582 105.352 267.11 105.628C267.638 105.892 268.052 106.264 268.352 106.744C268.664 107.212 268.82 107.812 268.82 108.544C268.82 109.192 268.688 109.75 268.424 110.218C268.172 110.686 267.812 111.07 267.344 111.37C266.876 111.658 266.324 111.868 265.688 112C265.064 112.144 264.38 112.216 263.636 112.216C263.108 112.216 262.598 112.18 262.106 112.108C261.626 112.048 261.17 111.97 260.738 111.874C260.318 111.766 259.958 111.652 259.658 111.532V109.192ZM271.2 116.176V105.79C271.2 105.562 271.194 105.268 271.182 104.908C271.17 104.536 271.152 104.17 271.128 103.81C271.116 103.45 271.08 103.162 271.02 102.946L271.074 102.802C271.698 102.538 272.358 102.328 273.054 102.172C273.75 102.016 274.458 101.938 275.178 101.938C275.91 101.938 276.588 102.04 277.212 102.244C277.848 102.436 278.406 102.742 278.886 103.162C279.366 103.582 279.738 104.116 280.002 104.764C280.278 105.4 280.416 106.162 280.416 107.05C280.416 107.782 280.308 108.466 280.092 109.102C279.876 109.726 279.552 110.272 279.12 110.74C278.688 111.208 278.142 111.574 277.482 111.838C276.834 112.09 276.072 112.216 275.196 112.216C274.944 112.216 274.692 112.198 274.44 112.162C274.188 112.138 273.96 112.102 273.756 112.054C273.564 112.018 273.432 111.994 273.36 111.982L273.72 111.01V116.176H271.2ZM273.72 111.154L273.63 110.218C273.618 110.158 273.66 110.14 273.756 110.164C273.852 110.176 273.996 110.2 274.188 110.236C274.392 110.272 274.644 110.29 274.944 110.29C275.952 110.29 276.684 110.002 277.14 109.426C277.608 108.85 277.842 108.058 277.842 107.05C277.842 106.054 277.608 105.28 277.14 104.728C276.672 104.176 275.97 103.9 275.034 103.9C274.662 103.9 274.308 103.948 273.972 104.044C273.636 104.128 273.396 104.224 273.252 104.332L273.486 103.684C273.582 103.864 273.642 104.092 273.666 104.368C273.702 104.632 273.72 104.944 273.72 105.304V111.154ZM282.17 107.05C282.17 105.934 282.374 104.998 282.782 104.242C283.19 103.474 283.76 102.898 284.492 102.514C285.224 102.13 286.064 101.938 287.012 101.938C287.948 101.938 288.782 102.13 289.514 102.514C290.246 102.898 290.816 103.474 291.224 104.242C291.632 104.998 291.836 105.934 291.836 107.05C291.836 108.178 291.632 109.12 291.224 109.876C290.816 110.632 290.246 111.208 289.514 111.604C288.782 111.988 287.948 112.18 287.012 112.18C286.052 112.18 285.206 111.988 284.474 111.604C283.754 111.208 283.19 110.632 282.782 109.876C282.374 109.12 282.17 108.178 282.17 107.05ZM284.744 107.05C284.744 108.106 284.936 108.904 285.32 109.444C285.704 109.972 286.268 110.236 287.012 110.236C287.744 110.236 288.302 109.972 288.686 109.444C289.07 108.904 289.262 108.106 289.262 107.05C289.262 105.994 289.07 105.202 288.686 104.674C288.302 104.134 287.744 103.864 287.012 103.864C286.268 103.864 285.704 104.134 285.32 104.674C284.936 105.202 284.744 105.994 284.744 107.05ZM294.21 112V105.718C294.21 105.478 294.204 105.172 294.192 104.8C294.18 104.416 294.162 104.044 294.138 103.684C294.126 103.312 294.09 103.018 294.03 102.802L294.084 102.658C294.42 102.538 294.81 102.43 295.254 102.334C295.71 102.238 296.184 102.166 296.676 102.118C297.18 102.058 297.684 102.028 298.188 102.028C298.404 102.028 298.638 102.034 298.89 102.046C299.142 102.058 299.394 102.082 299.646 102.118V104.17H299.484C299.304 104.122 299.1 104.092 298.872 104.08C298.644 104.056 298.422 104.044 298.206 104.044C297.822 104.044 297.444 104.074 297.072 104.134C296.7 104.194 296.382 104.266 296.118 104.35L296.496 103.774C296.652 104.098 296.73 104.656 296.73 105.448V112H294.21ZM306.421 112.144C305.569 112.144 304.843 112.018 304.243 111.766C303.655 111.514 303.205 111.13 302.893 110.614C302.593 110.086 302.443 109.408 302.443 108.58V99.634H304.963V108.382C304.963 108.994 305.107 109.432 305.395 109.696C305.683 109.96 306.127 110.092 306.727 110.092C306.955 110.092 307.177 110.068 307.393 110.02C307.621 109.972 307.819 109.912 307.987 109.84H308.149V111.856C307.933 111.94 307.681 112.006 307.393 112.054C307.105 112.114 306.781 112.144 306.421 112.144ZM300.877 104.188V102.172H307.645V104.188H300.877ZM309.506 109.516H309.65C310.082 109.696 310.586 109.852 311.162 109.984C311.75 110.116 312.338 110.182 312.926 110.182C313.13 110.182 313.352 110.176 313.592 110.164C313.832 110.14 314.054 110.098 314.258 110.038C314.474 109.978 314.648 109.87 314.78 109.714C314.924 109.558 314.996 109.348 314.996 109.084C314.996 108.748 314.858 108.514 314.582 108.382C314.306 108.25 313.88 108.136 313.304 108.04L312.458 107.896C311.498 107.728 310.76 107.44 310.244 107.032C309.728 106.612 309.47 105.994 309.47 105.178C309.47 104.59 309.626 104.056 309.938 103.576C310.262 103.096 310.76 102.718 311.432 102.442C312.116 102.154 313.01 102.01 314.114 102.01C314.63 102.01 315.104 102.046 315.536 102.118C315.98 102.178 316.4 102.268 316.796 102.388V104.458H316.652C316.196 104.278 315.758 104.152 315.338 104.08C314.918 104.008 314.486 103.972 314.042 103.972C313.37 103.972 312.842 104.056 312.458 104.224C312.086 104.38 311.9 104.662 311.9 105.07C311.9 105.382 312.038 105.604 312.314 105.736C312.602 105.868 313.016 105.982 313.556 106.078L314.384 106.222C314.948 106.306 315.458 106.456 315.914 106.672C316.382 106.888 316.754 107.188 317.03 107.572C317.306 107.944 317.444 108.424 317.444 109.012C317.444 110.056 317.054 110.842 316.274 111.37C315.506 111.886 314.342 112.144 312.782 112.144C312.206 112.144 311.63 112.096 311.054 112C310.478 111.904 309.962 111.784 309.506 111.64V109.516Z" fill="#4E4E4E"/>
<path d="M54.6304 44.8628H54.6108L47.2797 44.9085C46.4715 44.9111 45.6974 45.2346 45.1278 45.8079C44.5582 46.3813 44.2396 47.1574 44.2422 47.9656C44.2448 48.7738 44.5683 49.5478 45.1417 50.1174C45.715 50.6871 46.4911 51.0057 47.2993 51.0031H47.3188L54.6499 50.9541C55.4404 50.9258 56.189 50.5913 56.7373 50.0211C57.2856 49.451 57.5907 48.69 57.5882 47.899C57.5857 47.108 57.2756 46.349 56.7237 45.7824C56.1717 45.2158 55.421 44.886 54.6304 44.8628ZM54.6304 50.3016L47.296 50.3505C46.6931 50.3055 46.1296 50.0342 45.7185 49.5909C45.3074 49.1477 45.0791 48.5653 45.0795 47.9608C45.0799 47.3562 45.309 46.7742 45.7207 46.3315C46.1324 45.8888 46.6963 45.6183 47.2993 45.5741L54.6304 45.5284H54.6467C55.2661 45.5513 55.8525 45.8134 56.2826 46.2597C56.7127 46.706 56.9531 47.3017 56.9531 47.9215C56.9531 48.5413 56.7127 49.137 56.2826 49.5833C55.8525 50.0296 55.2661 50.2918 54.6467 50.3146L54.6304 50.3016Z" fill="black"/>
<path d="M51.2989 51.7177H50.63C49.1255 51.7177 47.9058 52.9374 47.9058 54.442V56.6378C47.9058 58.1423 49.1255 59.362 50.63 59.362H51.2989C52.8035 59.362 54.0232 58.1423 54.0232 56.6378V54.442C54.0232 52.9374 52.8035 51.7177 51.2989 51.7177Z" fill="black"/>
<path d="M111.641 29.9524H96.8908V29.835H61.4327C54.0345 29.8436 46.9417 32.7864 41.7104 38.0177C36.479 43.2491 33.5362 50.3419 33.5276 57.7401V62.4774H26.053C24.3142 62.4791 22.6472 63.1706 21.4178 64.4001C20.1883 65.6295 19.4968 67.2965 19.4951 69.0353V88.5294C19.4951 95.9779 21.7463 102.232 26.0203 106.637C30.1182 110.878 35.9158 113.198 42.8358 113.41V113.514H114.287C114.46 113.514 114.626 113.446 114.748 113.323C114.871 113.201 114.94 113.035 114.94 112.862V66.1837C116.668 66.4348 118.413 66.5613 120.16 66.5622C120.333 66.5622 120.499 66.4935 120.621 66.3711C120.744 66.2487 120.812 66.0827 120.812 65.9097V39.091C120.813 37.8881 120.576 36.6968 120.114 35.5858C119.653 34.4747 118.977 33.4657 118.125 32.6165C117.273 31.7674 116.261 31.095 115.149 30.6378C114.036 30.1806 112.844 29.9477 111.641 29.9524ZM20.8002 69.0353C20.8019 67.6427 21.3559 66.3076 22.3406 65.3229C23.3253 64.3382 24.6604 63.7842 26.053 63.7825H30.5815L27.6614 69.3909C26.9996 70.6662 26.0227 71.7511 24.8235 72.5425C23.6244 73.334 22.2427 73.8057 20.8099 73.9129L20.8002 69.0353ZM58.9009 112.131H43.8538C37.4264 112.131 32.1084 110.278 28.1932 106.911C23.4559 102.826 20.7969 96.513 20.7969 88.5392V74.5686C22.3528 74.4608 23.8547 73.9538 25.1576 73.0965C26.4606 72.2393 27.5207 71.0608 28.2357 69.6747L31.3123 63.7825H49.3023C51.845 63.785 54.2827 64.796 56.0809 66.5936C57.8792 68.3912 58.891 70.8287 58.8944 73.3713L58.9009 112.131ZM113.758 65.3681H113.618V112.209H59.5535V73.3843C59.5535 72.0391 59.2884 70.7071 58.7736 69.4644C58.2587 68.2216 57.504 67.0925 56.5527 66.1415C55.6013 65.1904 54.472 64.4361 53.2291 63.9216C51.9861 63.4071 50.654 63.1426 49.3089 63.143H34.8718V62.4905H34.8327V57.7401C34.8404 50.6877 37.6454 43.9264 42.6322 38.9396C47.619 33.9528 54.3803 31.1478 61.4327 31.14H84.8191V31.2575C84.9705 39.4034 87.9339 47.2465 93.207 53.4573C98.4801 59.6681 105.738 63.8646 113.752 65.3355L113.758 65.3681ZM119.475 65.2506C119.05 65.2506 118.63 65.2245 118.209 65.2017H117.957C117.556 65.1756 117.152 65.143 116.754 65.1071L116.48 65.0777C116.153 65.0418 115.807 65.0027 115.471 64.957L115.184 64.9178C114.835 64.8689 114.486 64.8102 114.14 64.7515C106.222 63.3527 99.0349 59.2485 93.8062 53.1398C88.5776 47.0311 85.6317 39.2967 85.4716 31.2575H111.635C113.711 31.2575 115.703 32.0825 117.171 33.5509C118.64 35.0194 119.465 37.011 119.465 39.0878L119.475 65.2506Z" fill="black"/>
<path d="M40.2473 111.933C31.5199 111.422 24.8246 105.576 22.1547 97.7632C20.951 94.2407 20.7645 93.9513 20.7542 83.9813L20.751 74.569L20.9972 74.5511C23.2255 74.3891 25.7416 73.0554 26.9972 71.4714C28.1994 69.9547 29.8394 66.5794 29.5546 67.1376L31.2664 63.7828L40.2844 63.7308C45.2656 63.7318 46.7956 63.6039 49.9039 63.8005C54.4066 63.9737 57.9834 67.6041 58.8075 71.4131C58.9737 72.1817 58.9761 78.5429 58.916 92.2417C58.903 95.2172 58.9008 112.131 58.9008 112.131L50.056 112.224C45.3186 112.21 41.0584 112.121 40.2473 111.933Z" fill="#808080"/>
<path d="M59.5062 91.945C59.4622 72.9959 59.445 71.6027 59.1984 70.7743C58.3125 67.7996 56.3412 65.5364 53.7413 64.2883C51.6039 63.2622 51.899 63.2456 42.9566 63.1919L34.8716 63.1434L34.8729 60.0237C34.8736 58.3843 34.8115 56.3121 34.8959 55.4188C36.0091 43.6306 44.4952 34.0925 56.217 31.6169C57.8148 31.2795 57.9174 31.0113 71.2229 31.1492L84.8189 31.1405L84.8797 32.8542C85.231 42.7647 91.3105 53.8663 100.595 59.9965C104.431 62.529 107.975 64.0199 113.095 65.214L113.752 65.3359L113.619 88.8103L113.618 112.21H86.4947H59.5533L59.5062 91.945ZM52.623 59.0205C52.9376 58.8437 53.3468 58.4325 53.5484 58.1387C53.8798 57.6557 54.0312 57.4858 54.0434 55.876C54.0578 53.9722 53.8789 53.3138 53.36 52.6541C52.4464 51.4927 49.9574 51.3757 48.7959 52.426C48.1326 53.0258 47.9312 53.6152 47.9312 55.4915C47.9312 56.6765 47.9862 57.394 48.1214 57.7099C48.3906 58.3391 49.0932 58.9446 49.797 59.2067C50.5862 59.5005 51.8943 59.4301 52.623 59.0205ZM55.4761 50.8022C56.3402 50.5748 57.5846 49.271 57.5846 47.9637C57.5846 46.6736 56.9601 45.7895 55.8968 45.182C55.407 44.9021 55.0429 44.8945 51.0415 44.8945C47.4282 44.8945 46.6067 44.8949 46.1459 45.1369C43.7203 46.1584 43.5835 49.5882 46.066 50.7376C46.5959 50.9829 47.0548 50.959 50.7646 50.9612C53.2045 50.9627 54.8522 50.9664 54.9802 50.9327L55.4761 50.8022Z" fill="#D9CD66"/>
<path d="M116.864 65.2195C108.005 64.3589 99.4664 60.1766 93.8466 53.3743C87.9309 46.2138 85.6969 38.3236 85.5192 32.7467L85.4717 31.2571L99.1412 31.2612C113.972 31.2657 112.948 31.0061 114.7 31.8126C116.669 32.7195 117.91 34.2708 118.549 35.3847C119.616 37.2437 119.612 36.6926 119.476 51.5735L119.475 65.2501L118.743 65.2336C118.398 65.2226 117.563 65.1812 116.91 65.1179L116.864 65.2195Z" fill="#808080"/>
</svg>
