<svg width="500" height="500" viewBox="0 0 233 231" fill="none" xmlns="http://www.w3.org/2000/svg">
<mask id="path-1-inside-1" fill="white">
<path d="M8.60635 90.0091L103.401 154.82C103.124 155.521 102.912 156.233 102.689 156.945C102.673 156.999 102.654 157.049 102.639 157.099C102.258 158.339 101.957 159.59 101.749 160.861C101.719 161.034 101.676 161.207 101.649 161.38C101.453 162.736 101.326 164.099 101.326 165.481C101.326 165.496 101.33 165.508 101.33 165.523C101.33 165.531 101.326 165.538 101.326 165.55C101.326 172.53 103.971 179.337 108.976 185.447C108.814 185.612 108.668 185.789 108.51 185.959C108.437 186.04 108.352 186.105 108.279 186.186C108.26 186.209 108.252 186.24 108.233 186.259C103.955 191.018 101.326 197.286 101.326 204.169C101.326 210.98 103.898 217.19 108.094 221.926C108.113 221.949 108.117 221.979 108.14 222.003C108.229 222.103 108.329 222.184 108.418 222.284C108.895 222.803 109.392 223.304 109.908 223.785C110.073 223.939 110.243 224.093 110.412 224.243C110.943 224.717 111.498 225.163 112.067 225.591C112.229 225.71 112.387 225.833 112.549 225.953C113.157 226.392 113.788 226.8 114.431 227.185C114.566 227.265 114.701 227.354 114.839 227.431C115.536 227.831 116.256 228.197 116.988 228.536C117.084 228.578 117.176 228.632 117.273 228.675C118.054 229.025 118.855 229.333 119.675 229.606C119.733 229.626 119.791 229.652 119.848 229.672C120.684 229.945 121.535 230.176 122.405 230.365C122.451 230.376 122.501 230.392 122.547 230.403C123.379 230.58 124.226 230.715 125.08 230.811C125.165 230.823 125.25 230.842 125.335 230.85C126.262 230.946 127.202 231 128.157 231C132.961 231 137.466 229.714 141.374 227.489C141.389 227.481 141.401 227.473 141.416 227.466C142.178 227.031 142.917 226.557 143.634 226.049C143.73 225.98 143.822 225.906 143.918 225.837C144.546 225.379 145.154 224.898 145.74 224.39C145.878 224.27 146.009 224.143 146.144 224.02C146.683 223.531 147.199 223.027 147.695 222.499C147.757 222.434 147.83 222.376 147.892 222.307C147.911 222.284 147.919 222.253 147.938 222.23C151.684 218.133 154.19 212.89 154.822 207.08C158.845 207.569 162.853 207.9 166.776 207.9C171.419 207.9 175.943 207.577 180.312 206.976L197.738 217.837C198.823 225.275 205.245 231 212.976 231C221.469 231 228.376 224.093 228.376 215.6C228.376 207.107 221.469 200.2 212.976 200.2H210.35L207.89 198.456C211.628 196.496 215.005 194.271 218 191.834C218.173 191.73 218.362 191.668 218.524 191.534C223.39 187.472 226.963 182.96 229.258 178.166C229.277 178.128 229.292 178.086 229.311 178.047C229.874 176.861 230.351 175.656 230.751 174.436C230.828 174.201 230.905 173.966 230.979 173.727C231.294 172.665 231.548 171.594 231.741 170.513C231.799 170.205 231.868 169.904 231.914 169.596C232.103 168.26 232.226 166.913 232.226 165.55C232.226 164.187 232.103 162.84 231.91 161.5C231.864 161.192 231.791 160.888 231.737 160.583C231.544 159.502 231.294 158.431 230.975 157.369C230.902 157.13 230.825 156.895 230.748 156.66C230.351 155.44 229.87 154.235 229.308 153.049C229.288 153.011 229.273 152.968 229.254 152.93C226.959 148.136 223.386 143.624 218.52 139.562C218.366 139.435 218.185 139.382 218.019 139.281C210.97 133.533 201.68 129.006 190.996 126.242C191.254 126.141 191.504 126.026 191.759 125.922C192.051 125.803 192.34 125.679 192.633 125.556C202.104 121.483 210.558 115.188 217.249 107.076C217.257 107.065 217.265 107.057 217.276 107.045C218.597 105.44 219.871 103.788 221.049 102.044C221.099 101.971 221.119 101.89 221.161 101.813C228.141 91.4028 232.226 78.898 232.226 65.45C232.226 63.8445 232.126 62.1544 231.968 60.3834C231.876 59.1976 231.749 58.0272 231.595 56.8606C231.587 56.8106 231.587 56.7721 231.579 56.7259C231.575 56.7105 231.568 56.6951 231.568 56.6797C228.257 32.1205 211.309 11.885 188.586 3.8192C188.548 3.8038 188.517 3.77685 188.478 3.76145C188.382 3.7268 188.282 3.70755 188.186 3.6729C186.73 3.16855 185.256 2.72195 183.758 2.3177C183.292 2.19065 182.827 2.07515 182.361 1.9558C181.056 1.63625 179.743 1.3398 178.411 1.09725C177.533 0.93555 176.655 0.82005 175.777 0.693C174.776 0.5544 173.783 0.39655 172.77 0.30415C170.776 0.1155 168.778 0 166.776 0C164.805 0 162.849 0.11935 160.909 0.29645C160.258 0.3542 159.611 0.43505 158.964 0.51205C157.667 0.6699 156.381 0.8701 155.103 1.10495C154.39 1.23585 153.674 1.3475 152.97 1.49765C151.334 1.8557 149.713 2.26765 148.119 2.7489C147.141 3.0415 146.19 3.388 145.231 3.72295C144.492 3.98475 143.757 4.24655 143.029 4.53145C141.997 4.9357 140.973 5.35535 139.968 5.8135C139.414 6.06375 138.871 6.34095 138.324 6.6066C136.322 7.57295 134.386 8.6317 132.511 9.7944C132.111 10.0408 131.699 10.2718 131.302 10.5297C130.34 11.1535 129.412 11.8118 128.484 12.4855C127.937 12.8821 127.398 13.2864 126.863 13.6983C125.989 14.3721 125.123 15.0535 124.283 15.7696C123.741 16.2355 123.221 16.7321 122.693 17.2172C121.338 18.4569 120.041 19.7467 118.793 21.0942C118.243 21.6909 117.685 22.2799 117.153 22.896C116.483 23.6736 115.844 24.4744 115.213 25.2868C114.724 25.9143 114.25 26.5496 113.785 27.1964C113.169 28.0511 112.553 28.9019 111.975 29.7836C111.629 30.3149 111.313 30.8731 110.982 31.416C109.854 33.2563 108.822 35.1505 107.879 37.1024C107.69 37.4951 107.474 37.8724 107.29 38.2729C107.278 38.2998 107.282 38.3344 107.27 38.3614C103.49 46.6235 101.326 55.7788 101.326 65.45C101.326 66.9476 101.453 68.4145 101.549 69.889C101.549 69.9006 101.545 69.916 101.545 69.9276C101.545 69.9545 101.553 69.9776 101.553 70.0045C101.696 72.0451 101.934 74.0509 102.258 76.0375C102.277 76.1491 102.288 76.2608 102.308 76.3686C102.639 78.3167 103.055 80.2301 103.551 82.1167C103.586 82.2552 103.621 82.39 103.659 82.5286C104.163 84.392 104.749 86.2169 105.411 88.0071C105.465 88.1496 105.515 88.2959 105.569 88.4383C106.238 90.217 106.985 91.9572 107.802 93.6589C107.867 93.7975 107.936 93.94 108.002 94.0786C108.833 95.7765 109.73 97.4281 110.701 99.0413C110.774 99.1645 110.851 99.2876 110.924 99.4108C111.563 100.454 112.187 101.505 112.88 102.51C112.911 102.56 112.926 102.618 112.961 102.668C113.912 104.039 114.924 105.351 115.964 106.637C116.229 106.961 116.499 107.28 116.768 107.6C117.919 108.967 119.109 110.295 120.36 111.554C120.426 111.619 120.487 111.688 120.553 111.754C121.869 113.067 123.248 114.299 124.665 115.492C124.992 115.766 125.315 116.039 125.646 116.308C127.044 117.44 128.476 118.522 129.955 119.531C130.259 119.739 130.578 119.927 130.886 120.132C132.145 120.959 133.435 121.741 134.748 122.48C135.187 122.726 135.618 122.984 136.064 123.223C137.547 124.012 139.064 124.74 140.607 125.414C141.158 125.656 141.716 125.88 142.275 126.107C142.382 126.149 142.486 126.195 142.594 126.238C136.203 127.889 130.282 130.149 125.065 132.948L32.1876 58.2659C27.9025 54.8202 22.5357 53.334 17.0956 54.0848C11.6479 54.8317 6.8854 57.7076 3.6899 62.1852C0.575249 66.5472 -0.625952 71.8564 0.309598 77.1348C1.23745 82.4092 4.18655 86.983 8.60635 90.0091ZM139.091 219.823C138.729 220.078 138.34 220.282 137.963 220.505C137.416 220.836 136.858 221.144 136.28 221.421C135.672 221.698 135.052 221.949 134.417 222.16C134.139 222.257 133.855 222.337 133.574 222.422C129.924 223.454 125.962 223.419 122.316 222.291C122.193 222.253 122.066 222.218 121.946 222.176C121.2 221.926 120.472 221.614 119.76 221.271C119.352 221.071 118.955 220.851 118.562 220.62C118.046 220.324 117.531 220.024 117.042 219.673C116.945 219.604 116.865 219.519 116.768 219.446C123.263 214.734 132.796 214.78 139.318 219.639C139.233 219.696 139.171 219.77 139.091 219.823ZM127.914 208.139C122.02 208.139 116.314 210.141 111.663 213.694C110.031 210.88 109.026 207.654 109.026 204.169C109.026 200.631 110.058 197.359 111.736 194.514C116.414 198.152 122.185 200.2 128.157 200.2C134.12 200.2 139.884 198.156 144.558 194.529C144.65 194.687 144.754 194.841 144.842 195.006C145.066 195.411 145.308 195.799 145.505 196.223C145.82 196.912 146.059 197.644 146.294 198.375C146.433 198.802 146.587 199.226 146.694 199.665C146.879 200.427 146.979 201.216 147.068 202.01C147.149 202.729 147.287 203.43 147.287 204.169C147.287 207.758 146.232 211.084 144.504 213.956C139.799 210.237 133.966 208.139 127.914 208.139ZM117.026 188.677C117.808 188.115 118.639 187.653 119.479 187.218C119.586 187.16 119.69 187.098 119.802 187.041C120.407 186.756 121.026 186.513 121.658 186.294C121.958 186.182 122.262 186.082 122.57 185.986C126.27 184.904 130.289 184.912 133.974 186.04C134.051 186.063 134.128 186.086 134.201 186.109C134.948 186.348 135.672 186.66 136.384 186.991C136.627 187.106 136.861 187.233 137.1 187.36C137.285 187.46 137.474 187.557 137.655 187.661C138.101 187.911 138.54 188.173 138.964 188.461C139.114 188.565 139.252 188.692 139.399 188.804C132.888 193.555 123.386 193.551 116.884 188.789C116.934 188.758 116.976 188.712 117.026 188.677ZM120.699 178.409C120.668 178.417 120.641 178.432 120.611 178.44C119.918 178.644 119.244 178.883 118.578 179.14C118.393 179.21 118.204 179.268 118.023 179.345C117.781 179.445 117.542 179.552 117.303 179.656C117.3 179.656 117.296 179.66 117.292 179.66C116.553 179.991 115.825 180.346 115.12 180.738C111.128 175.968 109.037 170.755 109.026 165.512C109.026 164.422 109.13 163.344 109.299 162.277C109.345 161.996 109.407 161.727 109.465 161.454C109.615 160.695 109.807 159.944 110.038 159.201C110.154 158.832 110.269 158.458 110.404 158.1C110.62 157.515 110.885 156.941 111.147 156.368C111.29 156.067 111.413 155.752 111.563 155.459C111.602 155.398 111.667 155.359 111.702 155.294C112.318 154.123 113.084 152.93 114.042 151.644C114.089 151.578 114.104 151.501 114.139 151.432C114.508 150.947 114.889 150.489 115.278 150.038C115.644 149.607 116.091 149.157 116.537 148.699C116.537 148.699 116.537 148.699 116.541 148.699L116.572 148.668C116.83 148.398 117.115 148.163 117.38 147.898C121.997 153.253 124.426 159.271 124.426 165.481C124.426 169.908 123.171 174.251 120.699 178.409ZM154.529 199.365C154.394 198.618 154.221 197.89 154.025 197.166C154.009 197.108 153.994 197.047 153.979 196.989C153.79 196.315 153.574 195.653 153.336 195.003C153.293 194.887 153.255 194.771 153.209 194.66C152.974 194.04 152.716 193.436 152.439 192.839C152.377 192.708 152.311 192.577 152.25 192.446C151.965 191.865 151.669 191.295 151.345 190.737C151.272 190.613 151.199 190.494 151.126 190.371C150.787 189.809 150.44 189.258 150.063 188.727C150.009 188.654 149.951 188.585 149.901 188.508C149.335 187.722 148.727 186.975 148.08 186.255C148.061 186.232 148.053 186.201 148.034 186.182C147.961 186.101 147.876 186.032 147.803 185.955C147.31 185.424 146.802 184.919 146.267 184.43C146.121 184.296 145.978 184.165 145.828 184.034C145.266 183.537 144.681 183.071 144.076 182.625C143.969 182.544 143.861 182.455 143.753 182.378C143.664 182.313 143.576 182.247 143.487 182.186C143.056 181.882 142.606 181.604 142.155 181.327C141.909 181.173 141.662 181.019 141.408 180.873C140.989 180.634 140.557 180.411 140.122 180.192C139.814 180.038 139.51 179.887 139.195 179.745C139.137 179.718 139.079 179.687 139.017 179.66C139.014 179.66 139.01 179.656 139.006 179.656C138.656 179.502 138.297 179.36 137.939 179.217C137.577 179.075 137.216 178.944 136.846 178.817C136.446 178.678 136.045 178.544 135.637 178.428C135.214 178.305 134.782 178.201 134.351 178.097C133.982 178.009 133.612 177.916 133.235 177.843C132.715 177.743 132.188 177.674 131.656 177.6C131.429 177.57 131.206 177.52 130.979 177.497C130.971 177.497 130.963 177.493 130.956 177.493C130.882 177.485 130.805 177.481 130.732 177.473C130.382 177.439 130.028 177.431 129.677 177.412C131.248 173.543 132.126 169.562 132.126 165.481C132.126 157.419 129.073 149.727 123.286 142.989C123.575 142.793 123.829 142.604 124.133 142.4C124.93 141.869 125.727 141.341 126.578 140.845C126.782 140.725 126.955 140.571 127.132 140.421C137.489 134.538 151.422 130.9 166.776 130.9C184.189 130.9 199.794 135.57 210.389 142.908C204.521 149.676 201.426 157.426 201.426 165.55C201.426 173.673 204.521 181.424 210.389 188.192C207.166 190.425 203.501 192.415 199.435 194.098C199.247 194.144 199.054 194.175 198.87 194.248C193.302 196.516 187.146 198.163 180.57 199.149C180.547 199.153 180.528 199.164 180.505 199.168C176.093 199.819 171.515 200.2 166.776 200.2C162.764 200.2 158.66 199.919 154.529 199.365ZM160.562 122.834C159.934 122.765 159.322 122.657 158.702 122.569C158.699 122.569 158.699 122.569 158.695 122.569C157.27 122.365 155.853 122.118 154.456 121.814C153.836 121.679 153.224 121.529 152.612 121.371C152.485 121.34 152.358 121.306 152.231 121.271C150.964 120.94 149.713 120.555 148.473 120.139C147.999 119.981 147.526 119.831 147.056 119.658C146.748 119.546 146.436 119.439 146.132 119.319C144.75 118.788 143.399 118.195 142.067 117.56C142.013 117.533 141.955 117.514 141.901 117.487C141.512 117.302 141.123 117.121 140.738 116.928C140.092 116.597 139.472 116.224 138.84 115.87C137.947 115.373 137.054 114.88 136.188 114.337C135.217 113.725 134.278 113.067 133.346 112.401C132.73 111.962 132.126 111.515 131.525 111.049C130.544 110.287 129.573 109.509 128.642 108.685C128.222 108.316 127.822 107.915 127.414 107.531C126.474 106.649 125.535 105.767 124.657 104.828C124.642 104.809 124.626 104.793 124.607 104.774C123.463 103.546 122.374 102.268 121.338 100.947C121.319 100.924 121.296 100.901 121.277 100.878C121.03 100.562 120.818 100.215 120.576 99.8921C121.211 98.5061 121.92 97.1509 122.697 95.8534C125.423 91.2796 128.819 85.5932 134.971 83.264C143.199 80.1377 151.869 85.035 161.894 90.7099C165.987 93.0275 170.222 95.4222 174.692 97.4011C185.079 101.998 196.733 104.289 209.519 104.146C209.103 104.604 208.699 105.074 208.267 105.521C207.786 106.017 207.297 106.503 206.804 106.984C205.923 107.835 205.022 108.659 204.086 109.452C203.559 109.898 203.016 110.329 202.473 110.757C201.534 111.5 200.579 112.227 199.593 112.913C198.97 113.344 198.331 113.741 197.691 114.145C196.74 114.753 195.786 115.354 194.796 115.908C194.026 116.335 193.233 116.717 192.444 117.109C191.539 117.56 190.638 118.026 189.707 118.43C188.736 118.85 187.739 119.204 186.746 119.569C185.941 119.87 185.148 120.193 184.324 120.459C183.131 120.84 181.91 121.136 180.69 121.437C180.016 121.606 179.358 121.814 178.676 121.956C177.252 122.257 175.8 122.457 174.345 122.649C173.829 122.719 173.325 122.83 172.801 122.884C170.815 123.088 168.805 123.2 166.776 123.2C164.685 123.2 162.614 123.058 160.562 122.834ZM223.048 157.869C223.255 158.401 223.421 158.955 223.59 159.509C223.756 160.071 223.902 160.634 224.022 161.203C224.106 161.6 224.199 161.993 224.26 162.401C224.418 163.44 224.526 164.487 224.526 165.55C224.526 166.613 224.418 167.66 224.26 168.699C224.199 169.107 224.106 169.5 224.022 169.897C223.902 170.466 223.756 171.029 223.59 171.591C223.421 172.145 223.255 172.699 223.048 173.231C222.997 173.362 222.932 173.485 222.882 173.616C221.311 177.427 218.813 180.654 216.241 183.214C211.575 177.839 209.126 171.791 209.126 165.55C209.126 159.309 211.575 153.261 216.241 147.89C218.813 150.446 221.311 153.673 222.882 157.488C222.932 157.615 222.997 157.742 223.048 157.869ZM199.79 202.156L206.901 207.192C207.551 207.654 208.329 207.9 209.126 207.9H212.976C217.222 207.9 220.676 211.353 220.676 215.6C220.676 219.847 217.222 223.3 212.976 223.3C208.729 223.3 205.276 219.847 205.276 215.6C205.276 214.272 204.591 213.036 203.463 212.331L191.381 204.801C191.543 204.758 191.689 204.697 191.847 204.654C194.149 204.035 196.375 203.326 198.535 202.548C198.943 202.406 199.385 202.306 199.79 202.156ZM215.59 96.1692C201.518 97.1547 188.802 95.2259 177.81 90.3595C173.683 88.5307 169.621 86.2323 165.686 84.007C154.96 77.9394 143.868 71.6524 132.241 76.0644C123.579 79.3447 119.071 86.9022 116.083 91.9072C115.983 92.0727 115.902 92.2537 115.802 92.4231C112.495 86.1938 110.277 79.2869 109.453 71.9488C126.243 63.8099 144.076 58.5546 162.495 56.3101C183.196 53.7922 203.955 55.1358 224.245 60.2948C224.264 60.4873 224.272 60.6606 224.287 60.8493C224.414 62.3738 224.526 63.8984 224.526 65.45C224.526 76.7459 221.219 87.2602 215.59 96.1692ZM222.901 52.0828C202.716 47.3473 182.118 46.1653 161.575 48.6678C143.403 50.8777 125.793 55.9174 109.122 63.6212C109.334 56.8568 110.704 50.3888 113.061 44.3982C116.672 45.1913 120.187 45.5994 123.59 45.5994C127.437 45.5994 131.14 45.0912 134.675 44.0748C142.128 41.9342 146.794 38.1497 152.704 33.3641C155.873 30.7962 159.469 27.8855 164.231 24.5861C171.461 19.5811 179.25 15.219 187.373 11.5615C204.995 18.3221 218.458 33.4488 222.901 52.0828ZM118.451 33.9262C118.955 33.1524 119.498 32.4093 120.041 31.6663C120.43 31.1311 120.822 30.5998 121.227 30.08C121.781 29.3678 122.339 28.6594 122.924 27.9741C123.39 27.4312 123.879 26.9153 124.364 26.3879C125.377 25.2868 126.428 24.228 127.521 23.2155C127.976 22.792 128.43 22.3723 128.9 21.9604C129.616 21.3367 130.34 20.7246 131.086 20.1355C131.498 19.8121 131.926 19.5079 132.345 19.1922C133.735 18.1566 135.167 17.1826 136.642 16.274C137.081 16.0044 137.512 15.7311 137.959 15.4732C138.813 14.9765 139.683 14.5029 140.561 14.0525C141.054 13.8022 141.555 13.5712 142.055 13.3325C143.464 12.6626 144.9 12.0505 146.359 11.4923C147.049 11.2305 147.734 10.9648 148.435 10.7299C149.212 10.4682 150.001 10.2218 150.795 9.9946C151.811 9.702 152.835 9.4402 153.875 9.2015C154.579 9.0398 155.288 8.8781 156 8.74335C157.355 8.4854 158.722 8.27365 160.108 8.1158C160.612 8.05805 161.12 8.00415 161.628 7.9618C163.33 7.81165 165.04 7.7 166.776 7.7C168.532 7.7 170.26 7.8078 171.973 7.9618C172.824 8.04265 173.671 8.162 174.518 8.28135C175.011 8.3468 175.5 8.42765 175.989 8.50465C170.391 11.4345 164.99 14.6954 159.846 18.2567C154.845 21.7178 151.13 24.7286 147.853 27.3812C142.217 31.9473 138.494 34.9657 132.542 36.6751C127.537 38.1111 122.235 38.3075 116.437 37.2411C117.053 36.1477 117.704 35.0774 118.381 34.034C118.408 33.9994 118.428 33.9608 118.451 33.9262ZM9.95385 66.6628C11.9058 63.9292 14.8164 62.1698 18.1428 61.7155C18.7049 61.6347 19.267 61.6 19.8252 61.6C22.5587 61.6 25.1883 62.5202 27.3635 64.2681L118.081 137.199C117.292 137.761 116.533 138.338 115.798 138.931C115.771 138.95 115.744 138.97 115.717 138.993L115.706 139L115.29 139.347C115.209 139.405 115.109 139.428 115.032 139.493C113.134 141.076 111.467 142.743 109.954 144.452C109.881 144.533 109.796 144.614 109.723 144.698C108.899 145.341 108.256 146.181 107.736 147.193C107.528 147.47 107.305 147.744 107.109 148.025L12.9568 83.6566C10.258 81.8086 8.46005 79.0174 7.89025 75.795C7.3166 72.5686 8.05195 69.327 9.95385 66.6628Z"/>
</mask>
<path d="M8.60635 90.0091L103.401 154.82C103.124 155.521 102.912 156.233 102.689 156.945C102.673 156.999 102.654 157.049 102.639 157.099C102.258 158.339 101.957 159.59 101.749 160.861C101.719 161.034 101.676 161.207 101.649 161.38C101.453 162.736 101.326 164.099 101.326 165.481C101.326 165.496 101.33 165.508 101.33 165.523C101.33 165.531 101.326 165.538 101.326 165.55C101.326 172.53 103.971 179.337 108.976 185.447C108.814 185.612 108.668 185.789 108.51 185.959C108.437 186.04 108.352 186.105 108.279 186.186C108.26 186.209 108.252 186.24 108.233 186.259C103.955 191.018 101.326 197.286 101.326 204.169C101.326 210.98 103.898 217.19 108.094 221.926C108.113 221.949 108.117 221.979 108.14 222.003C108.229 222.103 108.329 222.184 108.418 222.284C108.895 222.803 109.392 223.304 109.908 223.785C110.073 223.939 110.243 224.093 110.412 224.243C110.943 224.717 111.498 225.163 112.067 225.591C112.229 225.71 112.387 225.833 112.549 225.953C113.157 226.392 113.788 226.8 114.431 227.185C114.566 227.265 114.701 227.354 114.839 227.431C115.536 227.831 116.256 228.197 116.988 228.536C117.084 228.578 117.176 228.632 117.273 228.675C118.054 229.025 118.855 229.333 119.675 229.606C119.733 229.626 119.791 229.652 119.848 229.672C120.684 229.945 121.535 230.176 122.405 230.365C122.451 230.376 122.501 230.392 122.547 230.403C123.379 230.58 124.226 230.715 125.08 230.811C125.165 230.823 125.25 230.842 125.335 230.85C126.262 230.946 127.202 231 128.157 231C132.961 231 137.466 229.714 141.374 227.489C141.389 227.481 141.401 227.473 141.416 227.466C142.178 227.031 142.917 226.557 143.634 226.049C143.73 225.98 143.822 225.906 143.918 225.837C144.546 225.379 145.154 224.898 145.74 224.39C145.878 224.27 146.009 224.143 146.144 224.02C146.683 223.531 147.199 223.027 147.695 222.499C147.757 222.434 147.83 222.376 147.892 222.307C147.911 222.284 147.919 222.253 147.938 222.23C151.684 218.133 154.19 212.89 154.822 207.08C158.845 207.569 162.853 207.9 166.776 207.9C171.419 207.9 175.943 207.577 180.312 206.976L197.738 217.837C198.823 225.275 205.245 231 212.976 231C221.469 231 228.376 224.093 228.376 215.6C228.376 207.107 221.469 200.2 212.976 200.2H210.35L207.89 198.456C211.628 196.496 215.005 194.271 218 191.834C218.173 191.73 218.362 191.668 218.524 191.534C223.39 187.472 226.963 182.96 229.258 178.166C229.277 178.128 229.292 178.086 229.311 178.047C229.874 176.861 230.351 175.656 230.751 174.436C230.828 174.201 230.905 173.966 230.979 173.727C231.294 172.665 231.548 171.594 231.741 170.513C231.799 170.205 231.868 169.904 231.914 169.596C232.103 168.26 232.226 166.913 232.226 165.55C232.226 164.187 232.103 162.84 231.91 161.5C231.864 161.192 231.791 160.888 231.737 160.583C231.544 159.502 231.294 158.431 230.975 157.369C230.902 157.13 230.825 156.895 230.748 156.66C230.351 155.44 229.87 154.235 229.308 153.049C229.288 153.011 229.273 152.968 229.254 152.93C226.959 148.136 223.386 143.624 218.52 139.562C218.366 139.435 218.185 139.382 218.019 139.281C210.97 133.533 201.68 129.006 190.996 126.242C191.254 126.141 191.504 126.026 191.759 125.922C192.051 125.803 192.34 125.679 192.633 125.556C202.104 121.483 210.558 115.188 217.249 107.076C217.257 107.065 217.265 107.057 217.276 107.045C218.597 105.44 219.871 103.788 221.049 102.044C221.099 101.971 221.119 101.89 221.161 101.813C228.141 91.4028 232.226 78.898 232.226 65.45C232.226 63.8445 232.126 62.1544 231.968 60.3834C231.876 59.1976 231.749 58.0272 231.595 56.8606C231.587 56.8106 231.587 56.7721 231.579 56.7259C231.575 56.7105 231.568 56.6951 231.568 56.6797C228.257 32.1205 211.309 11.885 188.586 3.8192C188.548 3.8038 188.517 3.77685 188.478 3.76145C188.382 3.7268 188.282 3.70755 188.186 3.6729C186.73 3.16855 185.256 2.72195 183.758 2.3177C183.292 2.19065 182.827 2.07515 182.361 1.9558C181.056 1.63625 179.743 1.3398 178.411 1.09725C177.533 0.93555 176.655 0.82005 175.777 0.693C174.776 0.5544 173.783 0.39655 172.77 0.30415C170.776 0.1155 168.778 0 166.776 0C164.805 0 162.849 0.11935 160.909 0.29645C160.258 0.3542 159.611 0.43505 158.964 0.51205C157.667 0.6699 156.381 0.8701 155.103 1.10495C154.39 1.23585 153.674 1.3475 152.97 1.49765C151.334 1.8557 149.713 2.26765 148.119 2.7489C147.141 3.0415 146.19 3.388 145.231 3.72295C144.492 3.98475 143.757 4.24655 143.029 4.53145C141.997 4.9357 140.973 5.35535 139.968 5.8135C139.414 6.06375 138.871 6.34095 138.324 6.6066C136.322 7.57295 134.386 8.6317 132.511 9.7944C132.111 10.0408 131.699 10.2718 131.302 10.5297C130.34 11.1535 129.412 11.8118 128.484 12.4855C127.937 12.8821 127.398 13.2864 126.863 13.6983C125.989 14.3721 125.123 15.0535 124.283 15.7696C123.741 16.2355 123.221 16.7321 122.693 17.2172C121.338 18.4569 120.041 19.7467 118.793 21.0942C118.243 21.6909 117.685 22.2799 117.153 22.896C116.483 23.6736 115.844 24.4744 115.213 25.2868C114.724 25.9143 114.25 26.5496 113.785 27.1964C113.169 28.0511 112.553 28.9019 111.975 29.7836C111.629 30.3149 111.313 30.8731 110.982 31.416C109.854 33.2563 108.822 35.1505 107.879 37.1024C107.69 37.4951 107.474 37.8724 107.29 38.2729C107.278 38.2998 107.282 38.3344 107.27 38.3614C103.49 46.6235 101.326 55.7788 101.326 65.45C101.326 66.9476 101.453 68.4145 101.549 69.889C101.549 69.9006 101.545 69.916 101.545 69.9276C101.545 69.9545 101.553 69.9776 101.553 70.0045C101.696 72.0451 101.934 74.0509 102.258 76.0375C102.277 76.1491 102.288 76.2608 102.308 76.3686C102.639 78.3167 103.055 80.2301 103.551 82.1167C103.586 82.2552 103.621 82.39 103.659 82.5286C104.163 84.392 104.749 86.2169 105.411 88.0071C105.465 88.1496 105.515 88.2959 105.569 88.4383C106.238 90.217 106.985 91.9572 107.802 93.6589C107.867 93.7975 107.936 93.94 108.002 94.0786C108.833 95.7765 109.73 97.4281 110.701 99.0413C110.774 99.1645 110.851 99.2876 110.924 99.4108C111.563 100.454 112.187 101.505 112.88 102.51C112.911 102.56 112.926 102.618 112.961 102.668C113.912 104.039 114.924 105.351 115.964 106.637C116.229 106.961 116.499 107.28 116.768 107.6C117.919 108.967 119.109 110.295 120.36 111.554C120.426 111.619 120.487 111.688 120.553 111.754C121.869 113.067 123.248 114.299 124.665 115.492C124.992 115.766 125.315 116.039 125.646 116.308C127.044 117.44 128.476 118.522 129.955 119.531C130.259 119.739 130.578 119.927 130.886 120.132C132.145 120.959 133.435 121.741 134.748 122.48C135.187 122.726 135.618 122.984 136.064 123.223C137.547 124.012 139.064 124.74 140.607 125.414C141.158 125.656 141.716 125.88 142.275 126.107C142.382 126.149 142.486 126.195 142.594 126.238C136.203 127.889 130.282 130.149 125.065 132.948L32.1876 58.2659C27.9025 54.8202 22.5357 53.334 17.0956 54.0848C11.6479 54.8317 6.8854 57.7076 3.6899 62.1852C0.575249 66.5472 -0.625952 71.8564 0.309598 77.1348C1.23745 82.4092 4.18655 86.983 8.60635 90.0091ZM139.091 219.823C138.729 220.078 138.34 220.282 137.963 220.505C137.416 220.836 136.858 221.144 136.28 221.421C135.672 221.698 135.052 221.949 134.417 222.16C134.139 222.257 133.855 222.337 133.574 222.422C129.924 223.454 125.962 223.419 122.316 222.291C122.193 222.253 122.066 222.218 121.946 222.176C121.2 221.926 120.472 221.614 119.76 221.271C119.352 221.071 118.955 220.851 118.562 220.62C118.046 220.324 117.531 220.024 117.042 219.673C116.945 219.604 116.865 219.519 116.768 219.446C123.263 214.734 132.796 214.78 139.318 219.639C139.233 219.696 139.171 219.77 139.091 219.823ZM127.914 208.139C122.02 208.139 116.314 210.141 111.663 213.694C110.031 210.88 109.026 207.654 109.026 204.169C109.026 200.631 110.058 197.359 111.736 194.514C116.414 198.152 122.185 200.2 128.157 200.2C134.12 200.2 139.884 198.156 144.558 194.529C144.65 194.687 144.754 194.841 144.842 195.006C145.066 195.411 145.308 195.799 145.505 196.223C145.82 196.912 146.059 197.644 146.294 198.375C146.433 198.802 146.587 199.226 146.694 199.665C146.879 200.427 146.979 201.216 147.068 202.01C147.149 202.729 147.287 203.43 147.287 204.169C147.287 207.758 146.232 211.084 144.504 213.956C139.799 210.237 133.966 208.139 127.914 208.139ZM117.026 188.677C117.808 188.115 118.639 187.653 119.479 187.218C119.586 187.16 119.69 187.098 119.802 187.041C120.407 186.756 121.026 186.513 121.658 186.294C121.958 186.182 122.262 186.082 122.57 185.986C126.27 184.904 130.289 184.912 133.974 186.04C134.051 186.063 134.128 186.086 134.201 186.109C134.948 186.348 135.672 186.66 136.384 186.991C136.627 187.106 136.861 187.233 137.1 187.36C137.285 187.46 137.474 187.557 137.655 187.661C138.101 187.911 138.54 188.173 138.964 188.461C139.114 188.565 139.252 188.692 139.399 188.804C132.888 193.555 123.386 193.551 116.884 188.789C116.934 188.758 116.976 188.712 117.026 188.677ZM120.699 178.409C120.668 178.417 120.641 178.432 120.611 178.44C119.918 178.644 119.244 178.883 118.578 179.14C118.393 179.21 118.204 179.268 118.023 179.345C117.781 179.445 117.542 179.552 117.303 179.656C117.3 179.656 117.296 179.66 117.292 179.66C116.553 179.991 115.825 180.346 115.12 180.738C111.128 175.968 109.037 170.755 109.026 165.512C109.026 164.422 109.13 163.344 109.299 162.277C109.345 161.996 109.407 161.727 109.465 161.454C109.615 160.695 109.807 159.944 110.038 159.201C110.154 158.832 110.269 158.458 110.404 158.1C110.62 157.515 110.885 156.941 111.147 156.368C111.29 156.067 111.413 155.752 111.563 155.459C111.602 155.398 111.667 155.359 111.702 155.294C112.318 154.123 113.084 152.93 114.042 151.644C114.089 151.578 114.104 151.501 114.139 151.432C114.508 150.947 114.889 150.489 115.278 150.038C115.644 149.607 116.091 149.157 116.537 148.699C116.537 148.699 116.537 148.699 116.541 148.699L116.572 148.668C116.83 148.398 117.115 148.163 117.38 147.898C121.997 153.253 124.426 159.271 124.426 165.481C124.426 169.908 123.171 174.251 120.699 178.409ZM154.529 199.365C154.394 198.618 154.221 197.89 154.025 197.166C154.009 197.108 153.994 197.047 153.979 196.989C153.79 196.315 153.574 195.653 153.336 195.003C153.293 194.887 153.255 194.771 153.209 194.66C152.974 194.04 152.716 193.436 152.439 192.839C152.377 192.708 152.311 192.577 152.25 192.446C151.965 191.865 151.669 191.295 151.345 190.737C151.272 190.613 151.199 190.494 151.126 190.371C150.787 189.809 150.44 189.258 150.063 188.727C150.009 188.654 149.951 188.585 149.901 188.508C149.335 187.722 148.727 186.975 148.08 186.255C148.061 186.232 148.053 186.201 148.034 186.182C147.961 186.101 147.876 186.032 147.803 185.955C147.31 185.424 146.802 184.919 146.267 184.43C146.121 184.296 145.978 184.165 145.828 184.034C145.266 183.537 144.681 183.071 144.076 182.625C143.969 182.544 143.861 182.455 143.753 182.378C143.664 182.313 143.576 182.247 143.487 182.186C143.056 181.882 142.606 181.604 142.155 181.327C141.909 181.173 141.662 181.019 141.408 180.873C140.989 180.634 140.557 180.411 140.122 180.192C139.814 180.038 139.51 179.887 139.195 179.745C139.137 179.718 139.079 179.687 139.017 179.66C139.014 179.66 139.01 179.656 139.006 179.656C138.656 179.502 138.297 179.36 137.939 179.217C137.577 179.075 137.216 178.944 136.846 178.817C136.446 178.678 136.045 178.544 135.637 178.428C135.214 178.305 134.782 178.201 134.351 178.097C133.982 178.009 133.612 177.916 133.235 177.843C132.715 177.743 132.188 177.674 131.656 177.6C131.429 177.57 131.206 177.52 130.979 177.497C130.971 177.497 130.963 177.493 130.956 177.493C130.882 177.485 130.805 177.481 130.732 177.473C130.382 177.439 130.028 177.431 129.677 177.412C131.248 173.543 132.126 169.562 132.126 165.481C132.126 157.419 129.073 149.727 123.286 142.989C123.575 142.793 123.829 142.604 124.133 142.4C124.93 141.869 125.727 141.341 126.578 140.845C126.782 140.725 126.955 140.571 127.132 140.421C137.489 134.538 151.422 130.9 166.776 130.9C184.189 130.9 199.794 135.57 210.389 142.908C204.521 149.676 201.426 157.426 201.426 165.55C201.426 173.673 204.521 181.424 210.389 188.192C207.166 190.425 203.501 192.415 199.435 194.098C199.247 194.144 199.054 194.175 198.87 194.248C193.302 196.516 187.146 198.163 180.57 199.149C180.547 199.153 180.528 199.164 180.505 199.168C176.093 199.819 171.515 200.2 166.776 200.2C162.764 200.2 158.66 199.919 154.529 199.365ZM160.562 122.834C159.934 122.765 159.322 122.657 158.702 122.569C158.699 122.569 158.699 122.569 158.695 122.569C157.27 122.365 155.853 122.118 154.456 121.814C153.836 121.679 153.224 121.529 152.612 121.371C152.485 121.34 152.358 121.306 152.231 121.271C150.964 120.94 149.713 120.555 148.473 120.139C147.999 119.981 147.526 119.831 147.056 119.658C146.748 119.546 146.436 119.439 146.132 119.319C144.75 118.788 143.399 118.195 142.067 117.56C142.013 117.533 141.955 117.514 141.901 117.487C141.512 117.302 141.123 117.121 140.738 116.928C140.092 116.597 139.472 116.224 138.84 115.87C137.947 115.373 137.054 114.88 136.188 114.337C135.217 113.725 134.278 113.067 133.346 112.401C132.73 111.962 132.126 111.515 131.525 111.049C130.544 110.287 129.573 109.509 128.642 108.685C128.222 108.316 127.822 107.915 127.414 107.531C126.474 106.649 125.535 105.767 124.657 104.828C124.642 104.809 124.626 104.793 124.607 104.774C123.463 103.546 122.374 102.268 121.338 100.947C121.319 100.924 121.296 100.901 121.277 100.878C121.03 100.562 120.818 100.215 120.576 99.8921C121.211 98.5061 121.92 97.1509 122.697 95.8534C125.423 91.2796 128.819 85.5932 134.971 83.264C143.199 80.1377 151.869 85.035 161.894 90.7099C165.987 93.0275 170.222 95.4222 174.692 97.4011C185.079 101.998 196.733 104.289 209.519 104.146C209.103 104.604 208.699 105.074 208.267 105.521C207.786 106.017 207.297 106.503 206.804 106.984C205.923 107.835 205.022 108.659 204.086 109.452C203.559 109.898 203.016 110.329 202.473 110.757C201.534 111.5 200.579 112.227 199.593 112.913C198.97 113.344 198.331 113.741 197.691 114.145C196.74 114.753 195.786 115.354 194.796 115.908C194.026 116.335 193.233 116.717 192.444 117.109C191.539 117.56 190.638 118.026 189.707 118.43C188.736 118.85 187.739 119.204 186.746 119.569C185.941 119.87 185.148 120.193 184.324 120.459C183.131 120.84 181.91 121.136 180.69 121.437C180.016 121.606 179.358 121.814 178.676 121.956C177.252 122.257 175.8 122.457 174.345 122.649C173.829 122.719 173.325 122.83 172.801 122.884C170.815 123.088 168.805 123.2 166.776 123.2C164.685 123.2 162.614 123.058 160.562 122.834ZM223.048 157.869C223.255 158.401 223.421 158.955 223.59 159.509C223.756 160.071 223.902 160.634 224.022 161.203C224.106 161.6 224.199 161.993 224.26 162.401C224.418 163.44 224.526 164.487 224.526 165.55C224.526 166.613 224.418 167.66 224.26 168.699C224.199 169.107 224.106 169.5 224.022 169.897C223.902 170.466 223.756 171.029 223.59 171.591C223.421 172.145 223.255 172.699 223.048 173.231C222.997 173.362 222.932 173.485 222.882 173.616C221.311 177.427 218.813 180.654 216.241 183.214C211.575 177.839 209.126 171.791 209.126 165.55C209.126 159.309 211.575 153.261 216.241 147.89C218.813 150.446 221.311 153.673 222.882 157.488C222.932 157.615 222.997 157.742 223.048 157.869ZM199.79 202.156L206.901 207.192C207.551 207.654 208.329 207.9 209.126 207.9H212.976C217.222 207.9 220.676 211.353 220.676 215.6C220.676 219.847 217.222 223.3 212.976 223.3C208.729 223.3 205.276 219.847 205.276 215.6C205.276 214.272 204.591 213.036 203.463 212.331L191.381 204.801C191.543 204.758 191.689 204.697 191.847 204.654C194.149 204.035 196.375 203.326 198.535 202.548C198.943 202.406 199.385 202.306 199.79 202.156ZM215.59 96.1692C201.518 97.1547 188.802 95.2259 177.81 90.3595C173.683 88.5307 169.621 86.2323 165.686 84.007C154.96 77.9394 143.868 71.6524 132.241 76.0644C123.579 79.3447 119.071 86.9022 116.083 91.9072C115.983 92.0727 115.902 92.2537 115.802 92.4231C112.495 86.1938 110.277 79.2869 109.453 71.9488C126.243 63.8099 144.076 58.5546 162.495 56.3101C183.196 53.7922 203.955 55.1358 224.245 60.2948C224.264 60.4873 224.272 60.6606 224.287 60.8493C224.414 62.3738 224.526 63.8984 224.526 65.45C224.526 76.7459 221.219 87.2602 215.59 96.1692ZM222.901 52.0828C202.716 47.3473 182.118 46.1653 161.575 48.6678C143.403 50.8777 125.793 55.9174 109.122 63.6212C109.334 56.8568 110.704 50.3888 113.061 44.3982C116.672 45.1913 120.187 45.5994 123.59 45.5994C127.437 45.5994 131.14 45.0912 134.675 44.0748C142.128 41.9342 146.794 38.1497 152.704 33.3641C155.873 30.7962 159.469 27.8855 164.231 24.5861C171.461 19.5811 179.25 15.219 187.373 11.5615C204.995 18.3221 218.458 33.4488 222.901 52.0828ZM118.451 33.9262C118.955 33.1524 119.498 32.4093 120.041 31.6663C120.43 31.1311 120.822 30.5998 121.227 30.08C121.781 29.3678 122.339 28.6594 122.924 27.9741C123.39 27.4312 123.879 26.9153 124.364 26.3879C125.377 25.2868 126.428 24.228 127.521 23.2155C127.976 22.792 128.43 22.3723 128.9 21.9604C129.616 21.3367 130.34 20.7246 131.086 20.1355C131.498 19.8121 131.926 19.5079 132.345 19.1922C133.735 18.1566 135.167 17.1826 136.642 16.274C137.081 16.0044 137.512 15.7311 137.959 15.4732C138.813 14.9765 139.683 14.5029 140.561 14.0525C141.054 13.8022 141.555 13.5712 142.055 13.3325C143.464 12.6626 144.9 12.0505 146.359 11.4923C147.049 11.2305 147.734 10.9648 148.435 10.7299C149.212 10.4682 150.001 10.2218 150.795 9.9946C151.811 9.702 152.835 9.4402 153.875 9.2015C154.579 9.0398 155.288 8.8781 156 8.74335C157.355 8.4854 158.722 8.27365 160.108 8.1158C160.612 8.05805 161.12 8.00415 161.628 7.9618C163.33 7.81165 165.04 7.7 166.776 7.7C168.532 7.7 170.26 7.8078 171.973 7.9618C172.824 8.04265 173.671 8.162 174.518 8.28135C175.011 8.3468 175.5 8.42765 175.989 8.50465C170.391 11.4345 164.99 14.6954 159.846 18.2567C154.845 21.7178 151.13 24.7286 147.853 27.3812C142.217 31.9473 138.494 34.9657 132.542 36.6751C127.537 38.1111 122.235 38.3075 116.437 37.2411C117.053 36.1477 117.704 35.0774 118.381 34.034C118.408 33.9994 118.428 33.9608 118.451 33.9262ZM9.95385 66.6628C11.9058 63.9292 14.8164 62.1698 18.1428 61.7155C18.7049 61.6347 19.267 61.6 19.8252 61.6C22.5587 61.6 25.1883 62.5202 27.3635 64.2681L118.081 137.199C117.292 137.761 116.533 138.338 115.798 138.931C115.771 138.95 115.744 138.97 115.717 138.993L115.706 139L115.29 139.347C115.209 139.405 115.109 139.428 115.032 139.493C113.134 141.076 111.467 142.743 109.954 144.452C109.881 144.533 109.796 144.614 109.723 144.698C108.899 145.341 108.256 146.181 107.736 147.193C107.528 147.47 107.305 147.744 107.109 148.025L12.9568 83.6566C10.258 81.8086 8.46005 79.0174 7.89025 75.795C7.3166 72.5686 8.05195 69.327 9.95385 66.6628Z" fill="#D9CD66" stroke="black" stroke-width="2" mask="url(#path-1-inside-1)"/>
</svg>
