<svg width="150" height="150" viewBox="0 0 362 362" fill="none" xmlns="http://www.w3.org/2000/svg">
<path d="M126.022 88.9772H125.954L100.733 89.1343C97.9524 89.1432 95.2893 90.2563 93.3296 92.2287C91.3698 94.2011 90.2738 96.8712 90.2828 99.6517C90.2917 102.432 91.4048 105.095 93.3772 107.055C95.3496 109.015 98.0197 110.111 100.8 110.102H100.867L126.089 109.933C128.809 109.836 131.384 108.685 133.27 106.724C135.157 104.762 136.206 102.144 136.198 99.4227C136.189 96.7013 135.122 94.09 133.223 92.1408C131.324 90.1915 128.742 89.057 126.022 88.9772ZM126.022 107.688L100.789 107.857C98.7148 107.702 96.7761 106.768 95.3617 105.243C93.9474 103.719 93.1621 101.715 93.1635 99.6353C93.1649 97.5554 93.9529 95.553 95.3694 94.03C96.7858 92.5071 98.7259 91.5761 100.8 91.4241L126.022 91.267H126.078C128.209 91.3457 130.226 92.2475 131.706 93.783C133.186 95.3184 134.013 97.3678 134.013 99.5002C134.013 101.633 133.186 103.682 131.706 105.217C130.226 106.753 128.209 107.655 126.078 107.733L126.022 107.688Z" fill="black"/>
<path d="M114.561 112.56H112.26C107.084 112.56 102.888 116.757 102.888 121.933V129.487C102.888 134.663 107.084 138.86 112.26 138.86H114.561C119.737 138.86 123.934 134.663 123.934 129.487V121.933C123.934 116.757 119.737 112.56 114.561 112.56Z" fill="black"/>
<path d="M322.159 37.6801H271.413V37.2761H149.425C123.972 37.3058 99.5705 47.4299 81.5728 65.4276C63.5751 83.4253 53.451 107.827 53.4213 133.28V149.578H27.7058C21.724 149.583 15.9889 151.962 11.7592 156.192C7.52938 160.422 5.15047 166.157 5.14453 172.139V239.205C5.14453 264.831 12.8895 286.349 27.5936 301.502C41.6916 316.094 61.6376 324.074 85.4449 324.804V325.163H331.262C331.858 325.163 332.429 324.926 332.85 324.505C333.271 324.084 333.507 323.513 333.507 322.918V162.329C339.455 163.192 345.457 163.627 351.466 163.631C352.062 163.631 352.633 163.394 353.054 162.973C353.475 162.552 353.711 161.981 353.711 161.386V69.1201C353.713 64.9814 352.897 60.8833 351.31 57.0608C349.724 53.2383 347.398 49.7668 344.466 46.8456C341.535 43.9244 338.055 41.6109 334.227 40.0381C330.399 38.4652 326.298 37.6639 322.159 37.6801ZM9.63435 172.139C9.64029 167.348 11.5462 162.755 14.9339 159.367C18.3217 155.979 22.9148 154.073 27.7058 154.067H43.2855L33.2395 173.362C30.9626 177.75 27.6017 181.482 23.4762 184.205C19.3506 186.928 14.5974 188.551 9.66802 188.92L9.63435 172.139ZM140.714 320.404H88.9469C66.8346 320.404 48.5386 314.028 35.0692 302.445C18.7711 288.391 9.62312 266.672 9.62312 239.239V191.176C14.976 190.804 20.1429 189.06 24.6256 186.111C29.1082 183.162 32.7553 179.108 35.2151 174.339L45.7998 154.067H107.692C116.439 154.076 124.826 157.554 131.013 163.739C137.199 169.923 140.68 178.309 140.692 187.056L140.714 320.404ZM329.444 159.522H328.961V320.673H142.959V187.101C142.959 182.473 142.048 177.891 140.276 173.615C138.505 169.34 135.909 165.455 132.636 162.183C129.363 158.911 125.477 156.316 121.201 154.546C116.925 152.776 112.342 151.866 107.714 151.867H58.0458V149.622H57.9111V133.28C57.9378 109.017 67.588 85.7555 84.7443 68.5991C101.901 51.4428 125.162 41.7926 149.425 41.7659H229.882V42.17C230.403 70.1949 240.598 97.1777 258.739 118.545C276.881 139.912 301.852 154.35 329.421 159.41L329.444 159.522ZM349.109 159.118C347.65 159.118 346.202 159.029 344.754 158.95H343.89C342.509 158.86 341.117 158.748 339.748 158.625L338.805 158.524C337.683 158.4 336.493 158.265 335.337 158.108L334.349 157.973C333.148 157.805 331.947 157.603 330.757 157.401C303.516 152.589 278.789 138.469 260.801 117.453C242.813 96.4368 232.678 69.8278 232.127 42.17H322.137C329.281 42.17 336.133 45.0082 341.185 50.0602C346.237 55.1122 349.076 61.9642 349.076 69.1088L349.109 159.118Z" fill="black"/>
<path d="M76.5396 319.723C46.5143 317.963 23.4801 297.853 14.2947 270.973C10.1536 258.854 9.512 257.859 9.47655 223.558L9.46533 191.177L10.3125 191.115C17.9787 190.558 26.635 185.969 30.9545 180.52C35.0905 175.302 40.7327 163.69 39.7529 165.61L45.6422 154.068L76.6671 153.889C93.8044 153.893 99.0681 153.453 109.762 154.129C125.253 154.725 137.558 167.215 140.393 180.319C140.965 182.964 140.973 204.848 140.767 251.977C140.722 262.214 140.714 320.405 140.714 320.405L110.285 320.724C93.9866 320.674 79.3299 320.367 76.5396 319.723Z" fill="#808080"/>
<path d="M142.798 250.956C142.646 185.765 142.587 180.972 141.739 178.122C138.691 167.887 131.909 160.102 122.964 155.807C115.611 152.277 116.626 152.22 85.8612 152.036L58.046 151.869L58.0505 141.136C58.0529 135.496 57.8394 128.367 58.1296 125.293C61.9594 84.7378 91.1545 51.9234 131.482 43.4064C136.979 42.2454 137.332 41.3228 183.107 41.7973L229.882 41.7674L230.091 47.6632C231.3 81.7587 252.216 119.952 284.158 141.042C297.354 149.755 309.549 154.884 327.163 158.992L329.422 159.412L328.964 240.172L328.961 320.675H235.648H142.96L142.798 250.956ZM119.117 137.684C120.199 137.076 121.607 135.662 122.301 134.651C123.441 132.989 123.962 132.405 124.004 126.866C124.053 120.316 123.438 118.051 121.652 115.782C118.509 111.786 109.946 111.384 105.951 114.997C103.669 117.061 102.975 119.088 102.975 125.543C102.975 129.62 103.165 132.089 103.63 133.175C104.556 135.34 106.973 137.423 109.395 138.325C112.11 139.336 116.61 139.093 119.117 137.684ZM128.933 109.411C131.906 108.628 136.187 104.143 136.187 99.645C136.187 95.2065 134.038 92.1651 130.38 90.075C128.695 89.1121 127.443 89.0861 113.676 89.0861C101.245 89.0861 98.4188 89.0874 96.8334 89.9199C88.4885 93.4342 88.0181 105.234 96.5586 109.188C98.3818 110.032 99.9606 109.95 112.724 109.958C121.118 109.963 126.786 109.975 127.227 109.86L128.933 109.411Z" fill="#D9CD66"/>
<path d="M340.128 159.011C309.649 156.05 280.274 141.662 260.94 118.259C240.588 93.6248 232.902 66.4796 232.29 47.2931L232.127 42.1684L279.155 42.1827C330.18 42.1982 326.654 41.305 332.681 44.0796C339.458 47.1998 343.725 52.5368 345.924 56.369C349.594 62.7647 349.58 60.8687 349.113 112.064L349.109 159.117L346.593 159.06C345.406 159.022 342.531 158.879 340.287 158.661L340.128 159.011Z" fill="#808080"/>
</svg>
